<?xml version="1.0" standalone="no"?>
<!DOCTYPE svg PUBLIC "-//W3C//DTD SVG 20010904//EN"
 "http://www.w3.org/TR/2001/REC-SVG-20010904/DTD/svg10.dtd">
<svg version="1.0" xmlns="http://www.w3.org/2000/svg"
 width="1280.000000pt" height="1280.000000pt" viewBox="0 0 1280.000000 1280.000000"
 preserveAspectRatio="xMidYMid meet">
<metadata>
Created by potrace 1.15, written by Peter Selinger 2001-2017
</metadata>
<g transform="translate(0.000000,1280.000000) scale(0.100000,-0.100000)"
fill="#ff9800" stroke="none">
<path d="M8471 8688 c-270 -30 -533 -143 -746 -320 -160 -133 -291 -308 -521
-693 -76 -126 -165 -270 -198 -319 -132 -195 -304 -340 -474 -399 -76 -27
-101 -31 -197 -31 -94 -1 -110 1 -113 15 -5 29 432 1065 474 1122 48 65 51 77
25 98 -18 15 -31 17 -65 11 -57 -10 -608 -9 -851 2 l-201 9 -37 -32 c-43 -39
-107 -139 -107 -170 0 -12 7 -24 16 -28 9 -3 178 -6 376 -7 333 -1 362 -2 372
-19 17 -26 -28 -144 -154 -407 -59 -124 -129 -286 -155 -360 -138 -395 -308
-738 -471 -946 -176 -226 -369 -351 -556 -362 -107 -6 -163 8 -218 55 -76 65
-117 191 -105 316 22 215 106 406 231 530 65 65 119 95 217 123 77 21 112 45
104 69 -6 17 -133 17 -200 0 -141 -36 -271 -116 -397 -245 -97 -99 -165 -206
-206 -325 -50 -148 -34 -321 42 -451 35 -60 115 -131 182 -162 53 -25 66 -27
192 -26 105 0 155 5 223 22 397 99 736 356 1016 770 67 100 135 195 150 211
28 30 33 31 109 31 90 0 216 -21 259 -43 15 -9 39 -27 53 -42 42 -45 34 -108
-41 -331 -64 -189 -64 -189 -64 -304 0 -109 2 -118 30 -168 52 -96 145 -152
261 -160 82 -5 116 4 229 60 232 117 495 347 495 434 0 12 -8 32 -18 44 -30
37 -63 20 -134 -68 -101 -125 -227 -249 -274 -272 -59 -27 -122 -26 -164 3
-91 61 -98 136 -30 312 81 212 92 253 88 331 -7 107 -39 168 -127 239 -82 66
-82 69 14 113 175 82 444 303 589 485 65 82 189 269 276 417 187 318 333 500
510 632 206 153 395 189 690 131 75 -15 144 -24 153 -20 11 4 17 18 17 41 0
30 -5 36 -46 55 -25 12 -78 26 -117 31 -89 12 -293 11 -406 -2z"/>
</g>
</svg>
